<?xml version="1.0" encoding="UTF-8"?>
<svg xmlns="http://www.w3.org/2000/svg" version="1.1" viewBox="0 0 240 240">
  <defs>
    <style>
      .cls-1 {
        fill: #fff;
      }

      .cls-2 {
        fill: #00e26e;
      }

      .cls-3 {
        fill: #20252f;
      }
    </style>
  </defs>
  <!-- Generator: Adobe Illustrator 28.6.0, SVG Export Plug-In . SVG Version: 1.2.0 Build 709)  -->
  <g>
    <g id="Layer_1">
      <g id="Layer_1-2" data-name="Layer_1">
        <g>
          <path class="cls-3" d="M120,240c66.3,0,120-53.7,120-120S186.3,0,120,0,0,53.7,0,120s53.7,120,120,120Z"/>
          <path class="cls-1" d="M160.2,164.5c0-1.7-.4-3.4-1-4.9-1.4-3.2-7.7-19.8-7.7-19.8l-13.9-34.4c-1.8-4.5-6.2-7.4-11-7.4h-9.9c-4.9,0-9.2,2.9-11,7.4l-13.9,34.4-20.4-66.6h-25.9l28.9,94.7c1.5,5,6.1,8.4,11.4,8.4h9.1c4.9,0,9.2-2.9,11-7.4l15.7-38.8,15.8,39.1c1.8,4.5,6.1,5.8,10.9,5.8s11.9-3.9,11.9-10.5h0Z"/>
          <path class="cls-2" d="M137.4,169.2c1.9,4.3,6.2,7.2,10.9,7.2h9.1c5.2,0,9.9-3.4,11.4-8.4l16.2-53h-25.9l-7.6,24.9-8.9,29c-.8,2.4-4.1,2.6-5.2.3Z"/>
          <path class="cls-2" d="M171.8,73.3l-7.6,24.8h25.9l7.6-24.8h-25.9Z"/>
        </g>
      </g>
    </g>
  </g>
</svg>